<svg width="28" height="28" viewBox="0 0 28 28" fill="none" xmlns="http://www.w3.org/2000/svg">
<path fill-rule="evenodd" clip-rule="evenodd" d="M18.6 3.00002H21.4L21.4463 3.00001C21.6845 2.99992 21.969 2.99981 22.2197 3.02029C22.5101 3.04402 22.9261 3.10491 23.362 3.327C23.9265 3.61462 24.3854 4.07357 24.673 4.63805C24.8951 5.07394 24.956 5.48993 24.9797 5.78036C25.0002 6.03099 25.0001 6.31548 25 6.5537L25 6.60002V7.40002L25 7.4463C25.0001 7.68453 25.0002 7.96906 24.9797 8.21969C24.956 8.51012 24.8951 8.9261 24.673 9.362C24.3854 9.92648 23.9265 10.3854 23.362 10.673C22.9261 10.8951 22.5101 10.956 22.2197 10.9798C21.969 11.0002 21.6845 11.0001 21.4463 11L21.4 11H18.6L18.5537 11C18.3155 11.0001 18.031 11.0002 17.7803 10.9798C17.4899 10.956 17.0739 10.8951 16.638 10.673C16.0735 10.3854 15.6146 9.92648 15.327 9.362C15.1049 8.9261 15.044 8.51012 15.0203 8.21969C14.9998 7.96905 14.9999 7.68454 15 7.4463L15 7.40002V6.60002L15 6.55375C14.9999 6.31551 14.9998 6.031 15.0203 5.78036C15.044 5.48993 15.1049 5.07394 15.327 4.63805C15.6146 4.07357 16.0735 3.61462 16.638 3.327C17.0739 3.10491 17.4899 3.04402 17.7803 3.02029C18.031 2.99981 18.3155 2.99992 18.5537 3.00001L18.6 3.00002ZM17.109 5.54603C17 5.75995 17 6.03997 17 6.60002V7.40002C17 7.96008 17 8.2401 17.109 8.45401C17.2049 8.64218 17.3578 8.79516 17.546 8.89103C17.7599 9.00002 18.0399 9.00002 18.6 9.00002H21.4C21.96 9.00002 22.2401 9.00002 22.454 8.89103C22.6421 8.79516 22.7951 8.64218 22.891 8.45401C23 8.24011 23 7.96009 23 7.40005V6.60002C23 6.03999 23 5.75994 22.891 5.54603C22.7951 5.35787 22.6421 5.20489 22.454 5.10902C22.2401 5.00002 21.96 5.00002 21.4 5.00002H18.6C18.0399 5.00002 17.7599 5.00002 17.546 5.10902C17.3578 5.20489 17.2049 5.35787 17.109 5.54603ZM9.39999 17H6.59999L6.55372 17C6.31548 16.9999 6.03097 16.9998 5.78033 17.0203C5.4899 17.044 5.07391 17.1049 4.63802 17.327C4.07354 17.6146 3.61459 18.0736 3.32697 18.6381C3.10488 19.0739 3.04399 19.4899 3.02026 19.7804C2.99978 20.031 2.99989 20.3155 2.99998 20.5537L2.99999 20.6V21.4L2.99998 21.4463C2.99989 21.6845 2.99978 21.969 3.02026 22.2197C3.04399 22.5101 3.10488 22.9261 3.32697 23.362C3.61459 23.9265 4.07354 24.3854 4.63802 24.673C5.07391 24.8951 5.4899 24.956 5.78033 24.9798C6.03095 25.0002 6.31545 25.0001 6.55367 25L6.59999 25H9.39999L9.44627 25C9.68449 25.0001 9.96903 25.0002 10.2197 24.9798C10.5101 24.956 10.9261 24.8951 11.362 24.673C11.9265 24.3854 12.3854 23.9265 12.673 23.362C12.8951 22.9261 12.956 22.5101 12.9797 22.2197C13.0002 21.969 13.0001 21.6845 13 21.4463L13 21.4V20.6L13 20.5537C13.0001 20.3155 13.0002 20.031 12.9797 19.7804C12.956 19.4899 12.8951 19.0739 12.673 18.6381C12.3854 18.0736 11.9265 17.6146 11.362 17.327C10.9261 17.1049 10.5101 17.044 10.2197 17.0203C9.96902 16.9998 9.6845 16.9999 9.44627 17L9.39999 17ZM4.99999 20.6C4.99999 20.04 4.99999 19.7599 5.10899 19.546C5.20486 19.3579 5.35784 19.2049 5.546 19.109C5.75992 19 6.03994 19 6.59999 19H9.39999C9.96005 19 10.2401 19 10.454 19.109C10.6421 19.2049 10.7951 19.3579 10.891 19.546C11 19.7599 11 20.04 11 20.6V21.4C11 21.9601 11 22.2401 10.891 22.454C10.7951 22.6422 10.6421 22.7952 10.454 22.891C10.2401 23 9.96006 23 9.40002 23H6.59999C6.03996 23 5.75991 23 5.546 22.891C5.35784 22.7952 5.20486 22.6422 5.10899 22.454C4.99999 22.2401 4.99999 21.9601 4.99999 21.4V20.6ZM21.4 13H18.6L18.5537 13C18.3155 12.9999 18.031 12.9998 17.7803 13.0203C17.4899 13.044 17.0739 13.1049 16.638 13.327C16.0735 13.6146 15.6146 14.0736 15.327 14.6381C15.1049 15.0739 15.044 15.4899 15.0203 15.7804C14.9998 16.031 14.9999 16.3155 15 16.5537L15 16.6V21.4L15 21.4463C14.9999 21.6845 14.9998 21.969 15.0203 22.2197C15.044 22.5101 15.1049 22.9261 15.327 23.362C15.6146 23.9265 16.0735 24.3854 16.638 24.673C17.0739 24.8951 17.4899 24.956 17.7803 24.9798C18.031 25.0002 18.3154 25.0001 18.5537 25L18.6 25H21.4L21.4463 25C21.6845 25.0001 21.969 25.0002 22.2197 24.9798C22.5101 24.956 22.9261 24.8951 23.362 24.673C23.9265 24.3854 24.3854 23.9265 24.673 23.362C24.8951 22.9261 24.956 22.5101 24.9797 22.2197C25.0002 21.9691 25.0001 21.6846 25 21.4463L25 21.4V16.6L25 16.5537C25.0001 16.3155 25.0002 16.031 24.9797 15.7804C24.956 15.4899 24.8951 15.0739 24.673 14.6381C24.3854 14.0736 23.9265 13.6146 23.362 13.327C22.9261 13.1049 22.5101 13.044 22.2197 13.0203C21.969 12.9998 21.6845 12.9999 21.4463 13L21.4 13ZM17 16.6C17 16.04 17 15.7599 17.109 15.546C17.2049 15.3579 17.3578 15.2049 17.546 15.109C17.7599 15 18.0399 15 18.6 15H21.4C21.96 15 22.2401 15 22.454 15.109C22.6421 15.2049 22.7951 15.3579 22.891 15.546C23 15.7599 23 16.04 23 16.6V21.4C23 21.9601 23 22.2401 22.891 22.454C22.7951 22.6422 22.6421 22.7952 22.454 22.891C22.2401 23 21.9601 23 21.4 23H18.6C18.04 23 17.7599 23 17.546 22.891C17.3578 22.7952 17.2049 22.6422 17.109 22.454C17 22.2401 17 21.9601 17 21.4V16.6ZM9.39999 3.00002H6.59999L6.55372 3.00001C6.31548 2.99992 6.03097 2.99981 5.78033 3.02029C5.4899 3.04402 5.07391 3.10491 4.63802 3.327C4.07354 3.61462 3.61459 4.07357 3.32697 4.63805C3.10488 5.07394 3.04399 5.48993 3.02026 5.78036C2.99978 6.031 2.99989 6.31551 2.99998 6.55375L2.99999 6.60002V11.4L2.99998 11.4463C2.99989 11.6845 2.99978 11.969 3.02026 12.2197C3.04399 12.5101 3.10488 12.9261 3.32697 13.362C3.61459 13.9265 4.07354 14.3854 4.63802 14.673C5.07391 14.8951 5.4899 14.956 5.78033 14.9798C6.03097 15.0002 6.31548 15.0001 6.55372 15L6.59999 15H9.39999L9.44627 15C9.6845 15.0001 9.96902 15.0002 10.2197 14.9798C10.5101 14.956 10.9261 14.8951 11.362 14.673C11.9265 14.3854 12.3854 13.9265 12.673 13.362C12.8951 12.9261 12.956 12.5101 12.9797 12.2197C13.0002 11.969 13.0001 11.6845 13 11.4463L13 11.4V6.60002L13 6.55375C13.0001 6.31551 13.0002 6.031 12.9797 5.78036C12.956 5.48993 12.8951 5.07394 12.673 4.63805C12.3854 4.07357 11.9265 3.61462 11.362 3.327C10.9261 3.10491 10.5101 3.04402 10.2197 3.02029C9.96902 2.99981 9.6845 2.99992 9.44627 3.00001L9.39999 3.00002ZM4.99999 6.60002C4.99999 6.03997 4.99999 5.75995 5.10899 5.54603C5.20486 5.35787 5.35784 5.20489 5.546 5.10902C5.75992 5.00002 6.03994 5.00002 6.59999 5.00002H9.39999C9.96005 5.00002 10.2401 5.00002 10.454 5.10902C10.6421 5.20489 10.7951 5.35787 10.891 5.54603C11 5.75995 11 6.03997 11 6.60002V11.4C11 11.9601 11 12.2401 10.891 12.454C10.7951 12.6422 10.6421 12.7952 10.454 12.891C10.2401 13 9.96005 13 9.39999 13H6.59999C6.03994 13 5.75992 13 5.546 12.891C5.35784 12.7952 5.20486 12.6422 5.10899 12.454C4.99999 12.2401 4.99999 11.9601 4.99999 11.4V6.60002Z" fill="#212121"/>
</svg>
