<svg width="142" height="152" viewBox="0 0 142 152" fill="none" xmlns="http://www.w3.org/2000/svg">
<path fill-rule="evenodd" clip-rule="evenodd" d="M66.5 18.8188C35.1959 18.8188 9.81883 44.1959 9.81883 75.5C9.81883 106.804 35.1959 132.181 66.5 132.181C97.8042 132.181 123.181 106.804 123.181 75.5C123.181 44.1959 97.8042 18.8188 66.5 18.8188ZM9 75.5C9 43.7436 34.7436 18 66.5 18C98.2564 18 124 43.7436 124 75.5C124 107.256 98.2564 133 66.5 133C34.7436 133 9 107.256 9 75.5Z" fill="#D7DDE8"/>
<path fill-rule="evenodd" clip-rule="evenodd" d="M82.6313 108.849C83.3353 108.442 84.0209 108.016 84.6877 107.571C84.8758 107.446 85.13 107.497 85.2555 107.685C85.3809 107.873 85.3301 108.127 85.142 108.253C84.4606 108.707 83.76 109.143 83.0407 109.558C82.3214 109.973 81.594 110.362 80.8597 110.725C80.657 110.825 80.4115 110.742 80.3113 110.539C80.2111 110.337 80.2942 110.091 80.4969 109.991C81.2154 109.636 81.9272 109.255 82.6313 108.849ZM76.5531 112.101C76.626 112.315 76.5116 112.548 76.2976 112.621C74.723 113.157 73.1287 113.584 71.5245 113.903C71.3027 113.947 71.0872 113.803 71.043 113.581C70.9989 113.359 71.1429 113.144 71.3647 113.1C72.9338 112.787 74.4934 112.37 76.0335 111.846C76.2476 111.773 76.4802 111.887 76.5531 112.101ZM88.4872 105.211C88.3382 105.041 88.3555 104.782 88.5256 104.633C89.7501 103.562 90.8911 102.42 91.946 101.217C92.0951 101.047 92.3538 101.03 92.5238 101.179C92.6938 101.328 92.7107 101.587 92.5616 101.757C91.4831 102.987 90.3166 104.154 89.0649 105.25C88.8947 105.399 88.6361 105.381 88.4872 105.211ZM67.0075 114.111C67.0221 114.336 66.8511 114.531 66.6254 114.546C64.9743 114.653 63.3237 114.65 61.6842 114.541C61.4586 114.526 61.2879 114.331 61.3029 114.106C61.3179 113.88 61.5129 113.709 61.7385 113.724C63.3425 113.831 64.9573 113.833 66.5725 113.729C66.7981 113.714 66.9929 113.885 67.0075 114.111ZM95.0002 97.9492C94.8121 97.8237 94.7613 97.5695 94.8868 97.3814C95.785 96.035 96.5904 94.6353 97.3001 93.1929C97.3999 92.99 97.6453 92.9065 97.8482 93.0063C98.0511 93.1061 98.1346 93.3515 98.0348 93.5544C97.3094 95.0287 96.4862 96.4594 95.568 97.8358C95.4425 98.0239 95.1883 98.0747 95.0002 97.9492ZM57.2672 113.572C57.223 113.793 57.0074 113.937 56.7857 113.893C55.1689 113.571 53.5744 113.144 52.0131 112.614C51.799 112.542 51.6842 112.309 51.7568 112.095C51.8294 111.881 52.0619 111.766 52.276 111.839C53.8036 112.357 55.3638 112.775 56.9457 113.09C57.1675 113.134 57.3114 113.35 57.2672 113.572ZM99.4034 89.2442C99.1893 89.1716 99.0745 88.9392 99.1471 88.7251C99.665 87.1974 100.083 85.6373 100.398 84.0553C100.443 83.8336 100.658 83.6896 100.88 83.7338C101.102 83.778 101.246 83.9936 101.201 84.2154C100.879 85.8322 100.452 87.4267 99.9226 88.988C99.85 89.2021 99.6175 89.3168 99.4034 89.2442ZM47.9948 110.54C47.8949 110.743 47.6495 110.826 47.4466 110.726C45.9724 110.001 44.5417 109.178 43.1652 108.26C42.9771 108.134 42.9264 107.88 43.0519 107.692C43.1773 107.504 43.4315 107.453 43.6196 107.579C44.9661 108.477 46.3658 109.282 47.8081 109.992C48.011 110.092 48.0946 110.337 47.9948 110.54ZM101.414 79.6982C101.188 79.6832 101.018 79.4881 101.033 79.2625C101.139 77.6586 101.142 76.0437 101.037 74.4286C101.022 74.2029 101.193 74.0081 101.419 73.9935C101.645 73.9789 101.84 74.15 101.854 74.3756C101.961 76.0267 101.959 77.6774 101.85 79.3168C101.835 79.5424 101.64 79.7132 101.414 79.6982ZM39.8218 105.215C39.6727 105.385 39.4141 105.402 39.2441 105.253C38.0144 104.175 36.8468 103.008 35.7514 101.757C35.6025 101.586 35.6197 101.328 35.7899 101.179C35.96 101.03 36.2187 101.047 36.3676 101.217C37.4391 102.442 38.5812 103.583 39.784 104.638C39.954 104.787 39.9709 105.045 39.8218 105.215ZM100.889 69.958C100.668 70.0021 100.452 69.8581 100.408 69.6364C100.096 68.0673 99.6787 66.5077 99.1541 64.9675C99.0812 64.7535 99.1956 64.5209 99.4096 64.448C99.6237 64.375 99.8563 64.4895 99.9292 64.7035C100.465 66.278 100.892 67.8724 101.211 69.4766C101.255 69.6983 101.111 69.9139 100.889 69.958ZM97.8478 60.6898C97.6451 60.79 97.3996 60.7069 97.2994 60.5042C96.9442 59.7857 96.5636 59.0738 96.1571 58.3698L96.8662 57.9604C97.2815 58.6797 97.6705 59.407 98.0334 60.1413C98.1336 60.344 98.0505 60.5896 97.8478 60.6898ZM33.3161 97.9472C33.128 98.0726 32.8738 98.0218 32.7483 97.8337C32.2939 97.1522 31.8585 96.4517 31.4432 95.7324C31.0279 95.013 30.6389 94.2857 30.276 93.5514C30.1758 93.3487 30.2589 93.1032 30.4616 93.003C30.6643 92.9028 30.9098 92.9859 31.01 93.1886C31.3652 93.9071 31.7458 94.6189 32.1523 95.3229C32.5588 96.027 32.9849 96.7126 33.4296 97.3794C33.555 97.5675 33.5042 97.8217 33.3161 97.9472ZM28.8998 89.2448C28.6857 89.3177 28.4531 89.2033 28.3802 88.9892C27.8439 87.4147 27.4175 85.8203 27.0983 84.2162C27.0542 83.9944 27.1982 83.7788 27.4199 83.7347C27.6417 83.6906 27.8572 83.8346 27.9014 84.0564C28.2136 85.6255 28.6307 87.185 29.1553 88.7252C29.2282 88.9393 29.1138 89.1719 28.8998 89.2448ZM26.8903 79.6992C26.6646 79.7138 26.4699 79.5428 26.4552 79.3171C26.3483 77.666 26.3507 76.0154 26.4596 74.3759C26.4746 74.1503 26.6697 73.9796 26.8953 73.9946C27.1209 74.0095 27.2917 74.2046 27.2767 74.4302C27.1701 76.0342 27.1677 77.649 27.2724 79.2642C27.287 79.4898 27.1159 79.6846 26.8903 79.6992ZM27.4295 69.9589C27.2077 69.9147 27.0638 69.6991 27.108 69.4774C27.4302 67.8606 27.8575 66.2661 28.3868 64.7048C28.4594 64.4906 28.6918 64.3759 28.906 64.4485C29.1201 64.5211 29.2349 64.7535 29.1623 64.9677C28.6444 66.4953 28.2263 68.0555 27.911 69.6374C27.8668 69.8592 27.6512 70.0031 27.4295 69.9589ZM30.4612 60.6864C30.2583 60.5866 30.1748 60.3412 30.2746 60.1383C31 58.6641 31.8232 57.2333 32.7414 55.8569C32.8669 55.6688 33.1211 55.6181 33.3092 55.7435C33.4973 55.869 33.548 56.1232 33.4226 56.3113C32.5243 57.6578 31.719 59.0575 31.0093 60.4998C30.9095 60.7027 30.6641 60.7863 30.4612 60.6864ZM35.7856 52.5135C35.6156 52.3644 35.5987 52.1057 35.7478 51.9358C36.8263 50.7061 37.9928 49.5385 39.2445 48.4431C39.4147 48.2942 39.6733 48.3114 39.8222 48.4816C39.9711 48.6517 39.9539 48.9104 39.7838 49.0593C38.5593 50.1308 37.4183 51.2729 36.3634 52.4757C36.2143 52.6457 35.9556 52.6626 35.7856 52.5135ZM43.0539 46.0078C42.9284 45.8197 42.9792 45.5655 43.1674 45.44C43.8488 44.9856 44.5494 44.5502 45.2687 44.1349L45.6781 44.844C44.974 45.2505 44.2885 45.6766 43.6217 46.1213C43.4335 46.2467 43.1793 46.1959 43.0539 46.0078Z" fill="#B5DCFF"/>
<path fill-rule="evenodd" clip-rule="evenodd" d="M95.1926 56.0306L98.2113 56.9132C98.4283 56.9766 98.6557 56.8521 98.7192 56.6351C98.7826 56.4181 98.6581 56.1907 98.4411 56.1273L95.374 55.2305C94.9667 55.1114 94.5399 55.3451 94.4208 55.7524L93.524 58.8195C93.4606 59.0365 93.5851 59.2639 93.8021 59.3274C94.0191 59.3908 94.2465 59.2663 94.3099 59.0493L95.1926 56.0306Z" fill="#B5DCFF"/>
<path fill-rule="evenodd" clip-rule="evenodd" d="M94.63 55.4183C94.814 55.2869 95.0697 55.3295 95.2011 55.5135C95.804 56.3575 97.2307 58.4843 98.1066 60.2362C98.2077 60.4384 98.1258 60.6843 97.9235 60.7855C97.7213 60.8866 97.4754 60.8046 97.3742 60.6024C96.5267 58.9073 95.1288 56.8211 94.5348 55.9895C94.4034 55.8055 94.446 55.5498 94.63 55.4183Z" fill="#B5DCFF"/>
<path d="M48.3221 85.8762L61.5705 78.0753C63.0215 77.2209 63.747 76.7937 64.5479 76.7854C65.3488 76.7771 66.083 77.1892 67.5514 78.0132L81.5994 85.8973C83.0936 86.7358 83.8407 87.1551 84.2518 87.8573C84.6629 88.5594 84.6629 89.4161 84.6629 91.1296V106.687C84.6629 108.4 84.6629 109.257 84.2518 109.959C83.8407 110.661 83.0936 111.081 81.5994 111.919L67.5514 119.803L67.5513 119.803C66.083 120.627 65.3488 121.039 64.5479 121.031C63.747 121.023 63.0215 120.596 61.5705 119.741L48.3221 111.94L48.322 111.94C46.879 111.09 46.1575 110.666 45.762 109.974C45.3665 109.282 45.3665 108.445 45.3665 106.77V91.0465C45.3665 89.3719 45.3665 88.5346 45.762 87.8427C46.1575 87.1508 46.879 86.7259 48.3221 85.8762L48.3221 85.8762Z" fill="#E5EEF7" stroke="#0077FF"/>
<path d="M59.3731 79.2242C61.7916 77.7883 63.0009 77.0703 64.5259 77.0581C66.051 77.0458 67.2946 77.744 69.7819 79.1404L79.1474 84.3982C81.5892 85.7691 82.8101 86.4545 82.8429 87.3204C82.8757 88.1863 81.7078 88.9018 79.3722 90.3327L70.327 95.8741C67.8137 97.4139 66.557 98.1838 64.9666 98.1834C63.3762 98.183 62.1207 97.4125 59.6095 95.8716L50.5074 90.2861C48.2346 88.8914 47.0982 88.194 47.1103 87.3457C47.1225 86.4974 48.2787 85.8109 50.5912 84.438L59.3731 79.2242Z" fill="#F6F7F9" stroke="#0077FF"/>
<path d="M64.469 97.9414L64.469 121.254" stroke="#0077FF"/>
<path d="M49.2904 34.5677L56.7241 30.1906C60.8879 27.7388 62.9699 26.513 65.2682 26.4891C67.5665 26.4653 69.6734 27.6477 73.8873 30.0126L82.0467 34.5919C83.7619 35.5545 84.6195 36.0357 85.0914 36.8417C85.5633 37.6477 85.5633 38.6311 85.5633 40.5979V55.3283C85.5633 57.2951 85.5633 58.2785 85.0914 59.0845C84.6195 59.8905 83.7619 60.3718 82.0467 61.3344L68.7076 68.8206L68.7076 68.8206C67.0221 69.7665 66.1793 70.2395 65.26 70.23C64.3406 70.2204 63.5079 69.7301 61.8423 68.7494L49.2904 61.3585C47.634 60.3832 46.8057 59.8955 46.3517 59.1013C45.8977 58.3071 45.8977 57.3459 45.8977 55.4237V40.5026C45.8977 38.5803 45.8977 37.6192 46.3517 36.825C46.8057 36.0308 47.634 35.5431 49.2904 34.5677Z" fill="#F6F7F9"/>
<path fill-rule="evenodd" clip-rule="evenodd" d="M74.0693 29.6444L82.2674 34.2453C83.1088 34.7175 83.7667 35.0868 84.2712 35.4398C84.787 35.8008 85.1697 36.163 85.4459 36.6346C85.722 37.1063 85.8505 37.6173 85.9129 38.2437C85.9739 38.8565 85.9739 39.6109 85.9739 40.5758V55.3499C85.9739 56.3148 85.9739 57.0693 85.9129 57.682C85.8505 58.3085 85.722 58.8195 85.4459 59.2911C85.1697 59.7628 84.787 60.1249 84.2712 60.4859C83.7667 60.839 83.1087 61.2083 82.2672 61.6805L68.9229 69.1696L68.9092 69.1773L68.8903 69.1879C68.0635 69.652 67.4169 70.0148 66.8622 70.2582C66.295 70.5071 65.7949 70.6447 65.2569 70.6391C64.719 70.6335 64.2218 70.4856 63.66 70.225C63.1104 69.9702 62.4714 69.5939 61.6544 69.1129L49.0653 61.7001C48.2528 61.2217 47.6173 60.8475 47.1302 60.4926C46.6323 60.1297 46.2632 59.7689 45.9975 59.3042C45.7318 58.8395 45.6082 58.3384 45.5482 57.7251C45.4895 57.1253 45.4895 56.3878 45.4895 55.4449V40.4808C45.4895 39.5379 45.4895 38.8004 45.5482 38.2006C45.6082 37.5874 45.7318 37.0862 45.9975 36.6215C46.2632 36.1568 46.6323 35.796 47.1302 35.4331C47.6173 35.0782 48.2528 34.704 49.0653 34.2256L56.5369 29.8262C58.6025 28.6099 60.1782 27.6821 61.5247 27.0577C62.8835 26.4276 64.0377 26.0922 65.2652 26.0795C66.4926 26.0667 67.6535 26.3781 69.0251 26.9799C70.3843 27.5762 71.9789 28.4712 74.0693 29.6444ZM68.6961 27.7298C67.3862 27.1551 66.3445 26.8872 65.2737 26.8983C64.2028 26.9094 63.1668 27.1988 61.8692 27.8006C60.5633 28.4061 59.0218 29.3133 56.933 30.5432L49.4993 34.9203C48.6643 35.412 48.0634 35.7663 47.6125 36.0949C47.1687 36.4183 46.8967 36.6984 46.7084 37.0279C46.52 37.3574 46.4166 37.7339 46.3631 38.2804C46.3088 38.8357 46.3083 39.5333 46.3083 40.5023V55.4234C46.3083 56.3924 46.3088 57.09 46.3631 57.6454C46.4166 58.1918 46.52 58.5683 46.7084 58.8978C46.8967 59.2273 47.1687 59.5075 47.6125 59.8308C48.0634 60.1594 48.6643 60.5138 49.4993 61.0054L62.0513 68.3963C62.8909 68.8907 63.4956 69.2462 64.0044 69.4822C64.5052 69.7144 64.884 69.8163 65.2654 69.8203C65.6468 69.8243 66.0277 69.7301 66.5332 69.5084C67.0441 69.2842 67.6521 68.9438 68.4947 68.471L68.5084 68.4633L81.8476 60.9771C82.7122 60.4918 83.3345 60.1421 83.8017 59.815C84.2615 59.4932 84.5435 59.2117 84.7393 58.8774C84.935 58.5431 85.0425 58.1594 85.0981 57.6009C85.1546 57.0334 85.1551 56.3195 85.1551 55.3281V40.5977C85.1551 39.6062 85.1546 38.8923 85.0981 38.3248C85.0425 37.7664 84.935 37.3827 84.7393 37.0483C84.5435 36.714 84.2615 36.4325 83.8017 36.1107C83.3345 35.7837 82.7122 35.4339 81.8476 34.9486L73.6881 30.3694C71.5743 29.1831 70.0142 28.3081 68.6961 27.7298Z" fill="black"/>
<path d="M58.3443 29.0987C61.5832 27.1758 63.2027 26.2143 65.245 26.1979C67.2873 26.1814 68.9528 27.1164 72.2837 28.9865L78.291 32.359C81.5611 34.1949 83.1961 35.1128 83.24 36.2724C83.284 37.4319 81.72 38.3901 78.5921 40.3063L72.8615 43.8171C69.4958 45.8791 67.8129 46.9102 65.683 46.9097C63.5532 46.9091 61.8717 45.8773 58.5089 43.8137L52.6716 40.2317C49.6279 38.3639 48.106 37.43 48.1223 36.294C48.1386 35.1579 49.687 34.2386 52.7838 32.4L58.3443 29.0987Z" fill="#F6F7F9"/>
<path fill-rule="evenodd" clip-rule="evenodd" d="M81.5807 34.7478C80.7832 34.1626 79.5859 33.4896 77.9409 32.5661L71.9336 29.1935C70.2579 28.2528 69.0366 27.568 67.982 27.1168C66.9391 26.6707 66.1191 26.4799 65.252 26.4869C64.3849 26.4939 63.5745 26.6978 62.5537 27.1605C61.5213 27.6285 60.3338 28.3327 58.7044 29.3L53.1439 32.6013C51.5858 33.5264 50.4524 34.2001 49.7005 34.7829C48.9572 35.359 48.6309 35.8137 48.624 36.2964C48.6171 36.7791 48.9303 37.2369 49.657 37.82C50.3921 38.4098 51.5061 39.0943 53.0374 40.034L58.8747 43.616C60.5661 44.654 61.8 45.4102 62.8739 45.9108C63.9365 46.406 64.7799 46.6205 65.6832 46.6207C66.5865 46.6209 67.4302 46.4069 68.4935 45.9121C69.5681 45.412 70.8031 44.6564 72.496 43.6192L78.2266 40.1084C79.8002 39.1444 80.9453 38.442 81.6977 37.8373C82.4417 37.2394 82.7571 36.7712 82.7384 36.2787C82.7198 35.7863 82.3692 35.3264 81.5807 34.7478ZM82.37 34.3909C83.2274 35.0201 83.7163 35.599 83.7416 36.2661C83.7669 36.9332 83.3223 37.5239 82.5133 38.174C81.7173 38.8137 80.5257 39.5437 78.9842 40.4881L73.1993 44.0322C71.5399 45.0488 70.2585 45.8338 69.1241 46.3617C67.972 46.8978 66.9094 47.199 65.6828 47.1987C64.4562 47.1984 63.394 46.8967 62.2427 46.3601C61.109 45.8317 59.8288 45.046 58.1708 44.0286L52.2796 40.4135C50.7799 39.4932 49.62 38.7814 48.8419 38.157C48.0507 37.5222 47.6112 36.945 47.6206 36.2917C47.6299 35.6383 48.0859 35.0653 48.8951 34.4381C49.6911 33.8212 50.8712 33.1206 52.3971 32.2146L58.0116 28.8813C59.6079 27.9336 60.8416 27.2011 61.9331 26.7063C63.0423 26.2035 64.0628 25.9184 65.238 25.909C66.4132 25.8995 67.4471 26.168 68.5803 26.6528C69.6953 27.1298 70.9641 27.8421 72.6058 28.7638L78.669 32.1678C80.2805 33.0725 81.5263 33.7719 82.37 34.3909Z" fill="black"/>
<path fill-rule="evenodd" clip-rule="evenodd" d="M64.7734 70.5183L64.7734 46.9868L65.5923 46.9868L65.5923 70.5183L64.7734 70.5183Z" fill="black"/>
<path fill-rule="evenodd" clip-rule="evenodd" d="M72.6436 36.6152L72.9516 36.3019C74.1388 35.0942 73.8378 33.5335 72.0529 32.5054C69.9071 31.2693 66.428 31.2693 64.2821 32.5054C64.1408 32.5868 64.009 32.6716 63.8866 32.7591L63.3288 33.1583L62.574 32.8872C60.8535 32.2692 58.5602 32.3915 57.0658 33.2524C55.3787 34.2242 55.3267 35.7817 56.9099 36.7895L56.9151 36.7925L56.931 36.8026C56.9754 36.8307 57.0202 36.8578 57.0658 36.8841C57.1105 36.9099 57.1618 36.9379 57.2159 36.9665L57.2313 36.9747L64.0662 40.9075L64.0849 40.9196C64.1586 40.967 64.2328 41.0126 64.3081 41.0559C66.5201 42.3301 70.1065 42.3301 72.3185 41.0559C74.2744 39.9293 74.501 38.1824 72.9961 36.9126L72.6436 36.6152ZM56.1835 37.1885C54.2255 35.954 54.2828 34.0381 56.3563 32.8436C58.1882 31.7884 60.9972 31.6396 63.105 32.3967C63.2497 32.2931 63.4056 32.1929 63.5726 32.0967C66.1103 30.6349 70.2248 30.6349 72.7624 32.0967C74.8745 33.3133 75.2284 35.1589 73.8248 36.5867C75.5966 38.0817 75.3315 40.1378 73.028 41.4647C70.4242 42.9646 66.2025 42.9646 63.5986 41.4646C63.5083 41.4126 63.4213 41.3592 63.3371 41.305L56.5369 37.3921C56.4759 37.3598 56.4138 37.326 56.3563 37.2928C56.2988 37.2597 56.2431 37.2259 56.1889 37.1916L56.1835 37.1885Z" fill="#0077FF"/>
</svg>
