<svg width="153" height="152" viewBox="0 0 153 152" fill="none" xmlns="http://www.w3.org/2000/svg">
<path d="M50.281 82.7083C50.281 67.6233 50.281 60.0808 54.9673 55.3945C59.6536 50.7083 67.1961 50.7083 82.281 50.7083H105C120.085 50.7083 127.627 50.7083 132.314 55.3945C137 60.0808 137 67.6233 137 82.7083V83.4034C137 98.4884 137 106.031 132.314 110.717C127.627 115.403 120.085 115.403 105 115.403H82.281C67.1961 115.403 59.6536 115.403 54.9673 110.717C50.281 106.031 50.281 98.4884 50.281 83.4034V82.7083Z" fill="#F6F7F9" stroke="black"/>
<rect x="92.9531" y="60.3438" width="35.9792" height="26.8416" rx="6" fill="#E5EEF7"/>
<path d="M72.9765 117.819C72.9547 118.612 72.0887 119.227 70.5556 119.096L60.7006 118.255C59.8374 118.179 59.0803 118.364 58.6555 118.75L53.773 123.162C52.4441 124.357 48.8904 123.331 48.3703 121.602L42.9404 103.629C42.7851 103.112 43.0471 102.692 43.4256 102.404C41.1953 103.708 41.9165 107.076 42.1098 107.771C42.1098 107.776 42.1098 107.782 42.1125 107.784L42.1261 107.828C42.1398 107.872 42.1479 107.896 42.1479 107.896L47.5452 125.757C48.0653 127.486 51.619 128.51 52.9479 127.317L57.8304 122.906C58.258 122.519 59.0123 122.334 59.8755 122.41L69.7305 123.252C70.8987 123.353 71.6803 123.018 71.9961 122.503C72.0098 122.478 73.2025 120.591 72.9765 117.816V117.819Z" fill="#B5DCFF"/>
<path d="M47.2395 103.245C45.1096 102.066 42.4928 102.703 42.9674 104.28L48.3127 121.971C48.8257 123.672 52.3233 124.682 53.6311 123.506L58.4362 119.164C58.8561 118.784 59.6004 118.601 60.4504 118.676L70.1508 119.505C72.7826 119.729 73.4212 117.719 71.1244 116.448L47.2395 103.245Z" fill="#F6F7F9" stroke="#B5DCFF"/>
<rect x="17" y="22" width="56.7554" height="56.7554" rx="12" fill="#0077FF"/>
<path d="M38.5144 39.736C38.5144 35.7022 41.7845 32.4321 45.8183 32.4321C49.8521 32.4321 53.1221 35.7022 53.1221 39.736V42.5738C53.1221 46.6076 49.8521 49.8776 45.8183 49.8776C41.7845 49.8776 38.5144 46.6076 38.5144 42.5738V39.736Z" stroke="white"/>
<path d="M30.8538 69.8356C30.8538 49.3598 60.5083 49.3598 60.5083 69.8356" stroke="white" stroke-linecap="round"/>
</svg>
