<svg width="16" height="16" viewBox="0 0 16 16" fill="none" xmlns="http://www.w3.org/2000/svg">
<path d="M13.6281 14.9714C12.993 15.311 12.3682 15.4166 11.0602 15.4166H8.84906C8.84383 15.4167 8.83858 15.4167 8.83331 15.4167C8.4191 15.4167 8.08331 15.081 8.08331 14.6667C8.08331 14.2525 8.4191 13.9167 8.83331 13.9167C8.83331 13.9167 8.83332 13.9167 8.83331 13.9167L11.0602 13.9166C12.2991 13.9166 12.619 13.81 12.9207 13.6486C13.2006 13.499 13.4157 13.2838 13.5654 13.0039C13.7267 12.7023 13.8333 12.3823 13.8333 11.1434L13.8333 4.85639C13.8333 3.6175 13.7267 3.29756 13.5654 2.99591C13.4157 2.71603 13.2006 2.50087 12.9207 2.35119C12.619 2.18987 12.2991 2.08325 11.0602 2.08325H8.8491C8.84385 2.08336 8.83859 2.08341 8.83331 2.08341C8.4191 2.08341 8.08331 1.74763 8.08331 1.33341C8.08331 0.919201 8.4191 0.583414 8.83331 0.583414C8.83331 0.583414 8.83332 0.583414 8.83331 0.583414L11.0602 0.583252C12.3682 0.583252 12.9929 0.688803 13.6281 1.02847C14.1694 1.31795 14.5986 1.74723 14.8881 2.28851C15.2278 2.92363 15.3333 3.54835 15.3333 4.85639V11.1434C15.3333 12.4515 15.2278 13.0762 14.8881 13.7113C14.5986 14.2526 14.1694 14.6819 13.6281 14.9714Z" fill="white"/>
<path d="M5.803 10.803L7.85593 8.75009H1.25C0.835787 8.75009 0.5 8.4143 0.5 8.00009C0.5 7.58588 0.835787 7.25009 1.25 7.25009H7.85609L5.803 5.19701C5.51011 4.90411 5.51011 4.42924 5.803 4.13635C6.0959 3.84345 6.57077 3.84345 6.86366 4.13635L10.197 7.46968C10.4899 7.76257 10.4899 8.23744 10.197 8.53034L6.86366 11.8637C6.57077 12.1566 6.0959 12.1566 5.803 11.8637C5.51011 11.5708 5.51011 11.0959 5.803 10.803Z" fill="white"/>
</svg>
