<svg width="152" height="152" viewBox="0 0 152 152" fill="none" xmlns="http://www.w3.org/2000/svg">
<rect width="152" height="152" rx="16" fill="black"/>
<path fill-rule="evenodd" clip-rule="evenodd" d="M51.9365 51.9365C48 55.873 48 62.2086 48 74.88V77.12C48 89.7913 48 96.127 51.9365 100.064C55.873 104 62.2086 104 74.88 104H74.88H77.12H77.12C89.7914 104 96.127 104 100.064 100.064C104 96.127 104 89.7914 104 77.12V77.12V74.88V74.88C104 62.2086 104 55.873 100.064 51.9365C96.127 48 89.7913 48 77.12 48H74.88C62.2086 48 55.873 48 51.9365 51.9365ZM57.4498 65.031C57.7532 79.591 65.0331 88.341 77.7964 88.341H78.5199V80.011C83.2099 80.4777 86.7563 83.9077 88.1796 88.341H94.8065C92.9865 81.7143 88.2029 78.051 85.2163 76.651C88.2029 74.9243 92.403 70.7244 93.4063 65.031H87.3861C86.0794 69.651 82.2066 73.851 78.5199 74.2477V65.031H72.4997V81.1777C68.7664 80.2443 64.0531 75.7177 63.8431 65.031H57.4498Z" fill="white"/>
</svg>
